<svg height="209px" width="209px" style="height: 100%; width: 100%; background: rgba(255, 255, 255, 0);" id="Layer_1" data-name="Layer 1" xmlns="http://www.w3.org/2000/svg" viewBox="0 0 122.88 114.86"><g style="transform-origin: 50% 50%; transform: rotate(0deg) scale(0.78, 0.78);" class="ldl-scale"><g class="ldl-ani" style="transform-origin: 61.44px 57.43px; transform: scale(0.91); animation: 1.72414s linear 0s infinite normal forwards running breath-0f118eca-2717-4348-8dc5-6217752f1afa;"><g style="transform-origin: 61.44px 57.43px; transform: scale(0.91); animation: 0.877193s linear 0s infinite normal forwards running breath-4faa80dc-dc2e-44a9-8265-d9c77c0ad4b1;" class="ldl-ani"><defs><style>.cls-1{fill:#01a437;}</style></defs><title>leaves</title><g class="ldl-layer"><g class="ldl-ani"><path style="fill: rgb(1, 164, 55);" class="cls-1" d="M59.07,110.77C110.92,105,139.6,71.12,112.44,0c-21.29,14.9-50.39,24.6-65,44.55C57,52.94,64.89,62.23,67.08,74.37c13.19-16.08,27.63-30.72,35.23-47-7.79,39.07-20,53.84-38.78,73.81a93.64,93.64,0,0,1-4.46,9.62Zm-14.9,4C4,105-15.18,76.09,14.27,24.75c23.8,22.92,65.79,37.48,38.39,85.86a27.08,27.08,0,0,1-1.83,2.93C45.9,89.62,26.21,70.69,20.43,50.61,21.77,83.42,31.23,93,45.88,114.86c-.57,0-1.14-.06-1.71-.13Z"></path></g></g></g></g></g></svg>